<?xml version="1.0" encoding="UTF-8"?>
<svg width="44px" height="40px" viewBox="0 0 44 40" version="1.1" xmlns="http://www.w3.org/2000/svg" xmlns:xlink="http://www.w3.org/1999/xlink">
    <!-- Generator: sketchtool 52.5 (67469) - http://www.bohemiancoding.com/sketch -->
    <title>6206DD7D-8562-4987-8E33-7EF1E77213FD</title>
    <desc>Created with sketchtool.</desc>
    <g id="Page-1" stroke="none" stroke-width="1" fill="none" fill-rule="evenodd">
        <g id="Desktop" transform="translate(-45.000000, -339.000000)" fill="#9013FE">
            <g id="Card-1" transform="translate(25.000000, 303.000000)">
                <g id="comment" transform="translate(20.000000, 36.000000)">
                    <path d="M8,31 C8,30.4 7.6,30 7,30 L3,30 C2.4,30 2,29.6 2,29 L2,21 C2,20.4 2.4,20 3,20 L29,20 C29.6,20 30,19.6 30,19 C30,18.4 29.6,18 29,18 L3,18 C1.3,18 0,19.3 0,21 L0,29 C0,30.7 1.3,32 3,32 L7,32 C7.6,32 8,31.6 8,31 Z" id="Path"></path>
                    <path d="M41,12 L37,12 C36.4,12 36,12.4 36,13 C36,13.6 36.4,14 37,14 L41,14 C42.7,14 44,12.7 44,11 L44,3 C44,1.3 42.7,0 41,0 L3,0 C1.3,0 0,1.3 0,3 L0,11 C0,12.7 1.3,14 3,14 L24.2,14 C25.8,14 27.3,14.5 28.6,15.5 L36.4,21.7 C36.6,21.8 36.8,21.9 37,21.9 C37.1,21.9 37.3,21.9 37.4,21.8 C37.7,21.6 38,21.3 38,20.9 L38,19.9 L41,19.9 C41.6,19.9 42,20.3 42,20.9 L42,28.9 C42,29.5 41.6,29.9 41,29.9 L19.8,29.9 C17.8,29.9 15.8,30.6 14.2,31.9 L8,36.9 L8,35 C8,34.4 7.6,34 7,34 C6.4,34 6,34.4 6,35 L6,39 C6,39.4 6.2,39.7 6.6,39.9 C6.7,40 6.9,40 7,40 C7.2,40 7.4,39.9 7.6,39.8 L15.4,33.6 C16.6,32.6 18.2,32.1 19.8,32.1 L41,32.1 C42.7,32.1 44,30.8 44,29.1 L44,21.1 C44,19.4 42.7,18.1 41,18.1 L38,18.1 L38,17.1 C38,16.5 37.6,16.1 37,16.1 C36.4,16.1 36,16.5 36,17.1 L36,19 L29.8,14 C28.2,12.7 26.2,12 24.2,12 L3,12 C2.4,12 2,11.6 2,11 L2,3 C2,2.4 2.4,2 3,2 L41,2 C41.6,2 42,2.4 42,3 L42,11 C42,11.6 41.6,12 41,12 Z" id="Path"></path>
                    <circle id="Oval" cx="16" cy="25" r="1"></circle>
                    <circle id="Oval" cx="22" cy="25" r="1"></circle>
                    <circle id="Oval" cx="28" cy="25" r="1"></circle>
                    <circle id="Oval" cx="16" cy="7" r="1"></circle>
                    <circle id="Oval" cx="22" cy="7" r="1"></circle>
                    <circle id="Oval" cx="28" cy="7" r="1"></circle>
                </g>
            </g>
        </g>
    </g>
</svg>