<?xml version="1.0" encoding="UTF-8"?>
<svg width="44px" height="40px" viewBox="0 0 44 40" version="1.1" xmlns="http://www.w3.org/2000/svg" xmlns:xlink="http://www.w3.org/1999/xlink">
    <!-- Generator: sketchtool 52.5 (67469) - http://www.bohemiancoding.com/sketch -->
    <title>16CAC47E-9AF2-44DD-9D70-DF0F2D89C51A</title>
    <desc>Created with sketchtool.</desc>
    <g id="Page-1" stroke="none" stroke-width="1" fill="none" fill-rule="evenodd">
        <g id="Desktop" transform="translate(-45.000000, -475.000000)" fill="#1996FF" fill-rule="nonzero">
            <g id="Card-2" transform="translate(25.000000, 439.000000)">
                <g id="Responses" transform="translate(20.000000, 35.000000)">
                    <path d="M41,18 C39.698,18 38.598,18.839 38.184,20 L33,20 C32.448,20 32,20.447 32,21 C32,23.418 31.137,25.637 29.704,27.368 C29.023,25.414 27.182,24 25,24 L19,24 C16.813,24 14.97,25.42 14.293,27.38 C13.629,26.573 13.079,25.654 12.682,24.638 C12.481,24.124 11.901,23.868 11.387,24.071 C10.872,24.272 10.618,24.852 10.819,25.367 C11.693,27.603 13.17,29.452 15.019,30.773 L12.544,35.06 C12.11,34.98 11.663,34.985 11.225,35.103 C10.451,35.311 9.804,35.807 9.403,36.501 C9.002,37.194 8.896,38.003 9.103,38.777 C9.31,39.551 9.807,40.198 10.5,40.598 C10.962,40.865 11.476,41.001 11.996,41.001 C12.257,41.001 12.519,40.967 12.777,40.897 C13.551,40.69 14.198,40.194 14.599,39.5 C15.25,38.372 15.073,37.001 14.275,36.061 L16.736,31.798 C18.336,32.575 20.126,33 22,33 C23.884,33 25.665,32.556 27.253,31.779 L29.726,36.062 C28.928,37.002 28.751,38.373 29.402,39.501 C29.802,40.195 30.449,40.691 31.223,40.898 C31.481,40.967 31.744,41.002 32.004,41.002 C32.524,41.002 33.037,40.865 33.499,40.599 C34.193,40.199 34.69,39.552 34.897,38.778 C35.104,38.004 34.998,37.195 34.597,36.502 C34.196,35.808 33.549,35.312 32.775,35.104 C32.337,34.986 31.889,34.981 31.456,35.061 L28.968,30.752 C31.753,28.755 33.659,25.607 33.958,22.002 L38.184,22.002 C38.598,23.163 39.698,24.002 41,24.002 C42.654,24.002 44,22.656 44,21.002 C44,19.348 42.654,18 41,18 Z M12.867,38.5 C12.733,38.731 12.517,38.896 12.26,38.966 C12.003,39.033 11.733,38.998 11.501,38.865 C11.27,38.731 11.105,38.516 11.035,38.259 C10.965,38 11,37.731 11.134,37.5 C11.268,37.269 11.484,37.103 11.742,37.033 C11.828,37.011 11.916,36.999 12.002,36.999 C12.175,36.999 12.346,37.045 12.5,37.134 C12.978,37.409 13.142,38.022 12.867,38.5 Z M32.258,37.033 C32.516,37.102 32.732,37.268 32.866,37.5 C32.999,37.731 33.034,38 32.966,38.259 C32.897,38.517 32.731,38.732 32.499,38.865 C32.268,39 31.998,39.033 31.741,38.966 C31.483,38.897 31.267,38.732 31.134,38.5 C30.858,38.022 31.023,37.409 31.5,37.134 C31.654,37.045 31.825,36.999 31.998,36.999 C32.084,36.999 32.172,37.011 32.258,37.033 Z M15.998,29.008 C15.998,29.005 16,29.003 16,29 C16,27.346 17.346,26 19,26 L25,26 C26.648,26 27.988,27.336 27.998,28.982 C26.325,30.243 24.252,31 22,31 C19.771,31 17.687,30.274 15.998,29.008 Z M41,22 C40.449,22 40,21.552 40,21 C40,20.448 40.449,20 41,20 C41.551,20 42,20.448 42,21 C42,21.552 41.551,22 41,22 Z" id="Shape"></path>
                    <path d="M21,13 C19.346,13 18,14.346 18,16 L18,19 C18,21.206 19.794,23 22,23 C24.206,23 26,21.206 26,19 L26,16 C26,14.346 24.654,13 23,13 L21,13 Z M24,16 L24,19 C24,20.103 23.103,21 22,21 C20.897,21 20,20.103 20,19 L20,16 C20,15.448 20.449,15 21,15 L23,15 C23.551,15 24,15.448 24,16 Z" id="Shape"></path>
                    <path d="M11,22 C11.552,22 12,21.553 12,21 C12,15.486 16.486,11 22,11 C26.15,11 29.808,13.497 31.318,17.362 C31.519,17.876 32.099,18.133 32.613,17.929 C33.128,17.728 33.382,17.148 33.181,16.633 C32.307,14.397 30.83,12.548 28.981,11.227 L31.463,6.93 C31.64,6.962 31.817,6.999 31.994,6.999 C33.032,6.999 34.043,6.461 34.598,5.5 C35.424,4.067 34.931,2.229 33.499,1.401 C32.066,0.577 30.228,1.068 29.401,2.5 C28.75,3.627 28.927,4.999 29.725,5.939 L27.264,10.202 C25.663,9.425 23.874,9 22,9 C20.116,9 18.335,9.444 16.747,10.221 L14.275,5.938 C15.073,4.998 15.25,3.627 14.599,2.499 C14.199,1.805 13.552,1.309 12.778,1.102 C12.005,0.895 11.195,1.001 10.502,1.402 C9.808,1.802 9.311,2.449 9.104,3.223 C8.897,3.997 9.001,4.807 9.402,5.5 C9.803,6.194 10.45,6.69 11.224,6.898 C11.482,6.967 11.745,7.002 12.005,7.002 C12.185,7.002 12.361,6.964 12.538,6.932 L15.031,11.251 C12.246,13.248 10.34,16.396 10.041,20.001 L5.816,20.001 C5.402,18.838 4.302,18 3,18 C1.346,18 0,19.346 0,21 C0,22.654 1.346,24 3,24 C4.302,24 5.402,23.161 5.816,22 L11,22 Z M31.134,3.5 C31.409,3.022 32.022,2.856 32.499,3.134 C32.977,3.409 33.142,4.023 32.866,4.5 C32.59,4.977 31.977,5.143 31.5,4.866 C31.022,4.591 30.858,3.977 31.134,3.5 Z M11.742,4.967 C11.484,4.898 11.268,4.732 11.134,4.5 C11,4.268 10.965,4 11.034,3.741 C11.103,3.483 11.269,3.268 11.501,3.135 C11.655,3.045 11.826,3 11.999,3 C12.086,3 12.173,3.012 12.259,3.034 C12.517,3.103 12.733,3.268 12.866,3.5 C13.142,3.978 12.977,4.591 12.5,4.866 C12.27,5 12.001,5.034 11.742,4.967 Z M3,22 C2.449,22 2,21.552 2,21 C2,20.448 2.449,20 3,20 C3.551,20 4,20.448 4,21 C4,21.552 3.551,22 3,22 Z" id="Shape"></path>
                </g>
            </g>
        </g>
    </g>
</svg>