<?xml version="1.0" encoding="UTF-8"?>
<svg width="34px" height="44px" viewBox="0 0 34 44" version="1.1" xmlns="http://www.w3.org/2000/svg" xmlns:xlink="http://www.w3.org/1999/xlink">
    <!-- Generator: sketchtool 52.5 (67469) - http://www.bohemiancoding.com/sketch -->
    <title>24809101-747E-44D1-95D1-FB3D983A911A</title>
    <desc>Created with sketchtool.</desc>
    <g id="Page-1" stroke="none" stroke-width="1" fill="none" fill-rule="evenodd">
        <g id="Desktop-+-Faq-No" transform="translate(-50.000000, -609.000000)" fill="#3FC9AA">
            <g id="Card-3" transform="translate(25.000000, 575.000000)">
                <g id="shield" transform="translate(25.000000, 34.000000)">
                    <circle id="Oval" cx="17" cy="22" r="1"></circle>
                    <path d="M33,6 C33.553,6 34,5.552 34,5 L34,3 C34,1.346 32.654,0 31,0 L3,0 C1.346,0 0,1.346 0,3 L0,30.941 C0,32.552 0.782,34.073 2.094,35.01 L12.791,42.651 C14.025,43.534 15.481,44 17,44 C18.519,44 19.975,43.534 21.209,42.651 L31.906,35.01 C33.218,34.074 34,32.553 34,30.941 L34,9 C34,8.448 33.553,8 33,8 L29,8 C28.447,8 28,8.448 28,9 L28,29.981 C28,30.3 27.846,30.603 27.589,30.79 L18.22,37.602 C17.513,38.119 16.491,38.118 15.78,37.602 L6.413,30.79 C6.154,30.603 6,30.3 6,29.981 L6,6 L29,6 C29.553,6 30,5.552 30,5 C30,4.448 29.553,4 29,4 L5,4 C4.447,4 4,4.448 4,5 L4,29.981 C4,30.937 4.461,31.844 5.235,32.407 L14.602,39.219 C15.304,39.73 16.133,40 17,40 C17.867,40 18.696,39.73 19.396,39.22 L28.765,32.407 C29.539,31.844 30,30.937 30,29.981 L30,10 L32,10 L32,30.941 C32,31.908 31.53,32.82 30.744,33.382 L20.047,41.024 C18.258,42.301 15.742,42.302 13.953,41.024 L3.256,33.382 C2.47,32.821 2,31.908 2,30.941 L2,3 C2,2.449 2.448,2 3,2 L31,2 C31.552,2 32,2.449 32,3 L32,5 C32,5.552 32.447,6 33,6 Z" id="Path"></path>
                    <path d="M20,15 C20.553,15 21,14.552 21,14 L21,13 C21,10.794 19.206,9 17,9 C14.794,9 13,10.794 13,13 L13,17 L12,17 C11.447,17 11,17.448 11,18 L11,26 C11,26.552 11.447,27 12,27 L22,27 C22.553,27 23,26.552 23,26 L23,18 C23,17.448 22.553,17 22,17 L18,17 C17.447,17 17,17.448 17,18 C17,18.552 17.447,19 18,19 L21,19 L21,25 L13,25 L13,19 L14,19 C14.553,19 15,18.552 15,18 L15,13 C15,11.897 15.897,11 17,11 C18.103,11 19,11.897 19,13 L19,14 C19,14.552 19.447,15 20,15 Z" id="Path"></path>
                </g>
            </g>
        </g>
    </g>
</svg>