<?xml version="1.0" encoding="UTF-8"?>
<svg width="26px" height="16px" viewBox="0 0 26 16" version="1.1" xmlns="http://www.w3.org/2000/svg" xmlns:xlink="http://www.w3.org/1999/xlink">
    <!-- Generator: sketchtool 52.5 (67469) - http://www.bohemiancoding.com/sketch -->
    <title>60602FEB-B0D8-40D8-8EDC-E02AD5E0EC0D</title>
    <desc>Created with sketchtool.</desc>
    <g id="Page-1" stroke="none" stroke-width="1" fill="none" fill-rule="evenodd">
        <g id="Desktop-+-Faq-No" transform="translate(-702.000000, -194.000000)" fill="#C9236D">
            <g id="Blurb" transform="translate(702.000000, 191.000000)">
                <g id="Ticket-sent" transform="translate(0.000000, 3.000000)">
                    <path d="M9.45454545,11.0769231 C9.45454545,10.7076923 9.21818182,10.4615385 8.86363636,10.4615385 L4.13636364,10.4615385 C3.78181818,10.4615385 3.54545455,10.7076923 3.54545455,11.0769231 C3.54545455,11.4461538 3.78181818,11.6923077 4.13636364,11.6923077 L8.86363636,11.6923077 C9.21818182,11.6923077 9.45454545,11.4461538 9.45454545,11.0769231 Z" id="Path"></path>
                    <path d="M7.68181818,8 C7.68181818,7.63076923 7.44545455,7.38461538 7.09090909,7.38461538 L2.36363636,7.38461538 C2.00909091,7.38461538 1.77272727,7.63076923 1.77272727,8 C1.77272727,8.36923077 2.00909091,8.61538462 2.36363636,8.61538462 L7.09090909,8.61538462 C7.44545455,8.61538462 7.68181818,8.36923077 7.68181818,8 Z" id="Path"></path>
                    <path d="M5.90909091,4.92307692 C5.90909091,4.55384615 5.67272727,4.30769231 5.31818182,4.30769231 L0.590909091,4.30769231 C0.236363636,4.30769231 0,4.55384615 0,4.92307692 C0,5.29230769 0.236363636,5.53846154 0.590909091,5.53846154 L5.31818182,5.53846154 C5.67272727,5.53846154 5.90909091,5.29230769 5.90909091,4.92307692 Z" id="Path"></path>
                    <path d="M22.6909091,2.58461538 L16.4272727,7.56923077 C15.7772727,8.06153846 14.8909091,8.06153846 14.2409091,7.56923077 L7.97727273,2.58461538 C7.74090909,2.4 7.32727273,2.4 7.15,2.70769231 C6.97272727,2.95384615 6.97272727,3.38461538 7.26818182,3.56923077 L13.5909091,8.55384615 C14.1227273,8.98461538 14.7727273,9.16923077 15.3636364,9.16923077 C15.9545455,9.16923077 16.6636364,8.98461538 17.1363636,8.55384615 L23.4,3.56923077 C23.6363636,3.38461538 23.6954545,2.95384615 23.5181818,2.70769231 C23.3409091,2.46153846 22.9272727,2.4 22.6909091,2.58461538 Z" id="Path"></path>
                    <path d="M24.2272727,0 L5.31818182,0 C4.96363636,0 4.72727273,0.246153846 4.72727273,0.615384615 C4.72727273,0.984615385 4.96363636,1.23076923 5.31818182,1.23076923 L24.2272727,1.23076923 C24.5818182,1.23076923 24.8181818,1.47692308 24.8181818,1.84615385 L24.8181818,14.1538462 C24.8181818,14.5230769 24.5818182,14.7692308 24.2272727,14.7692308 L5.31818182,14.7692308 C4.96363636,14.7692308 4.72727273,15.0153846 4.72727273,15.3846154 C4.72727273,15.7538462 4.96363636,16 5.31818182,16 L24.2272727,16 C25.2318182,16 26,15.2 26,14.1538462 L26,1.84615385 C26,0.8 25.2318182,0 24.2272727,0 Z" id="Path"></path>
                    <path d="M19.0863636,8.8 C18.85,9.04615385 18.85,9.41538462 19.0863636,9.66153846 L22.6318182,13.3538462 C22.75,13.4769231 22.9272727,13.5384615 23.0454545,13.5384615 C23.1636364,13.5384615 23.3409091,13.4769231 23.4590909,13.3538462 C23.6954545,13.1076923 23.6954545,12.7384615 23.4590909,12.4923077 L19.9136364,8.8 C19.6772727,8.55384615 19.3227273,8.55384615 19.0863636,8.8 Z" id="Path"></path>
                </g>
            </g>
        </g>
    </g>
</svg>